<?xml version="1.0" standalone="no"?>
<!DOCTYPE svg PUBLIC "-//W3C//DTD SVG 20010904//EN"
 "http://www.w3.org/TR/2001/REC-SVG-20010904/DTD/svg10.dtd">
<svg version="1.0" xmlns="http://www.w3.org/2000/svg"
 width="512.000000pt" height="512.000000pt" viewBox="0 0 512.000000 512.000000"
 preserveAspectRatio="xMidYMid meet">
<metadata>
Created by potrace 1.11, written by Peter Selinger 2001-2013
</metadata>
<g transform="translate(0.000000,512.000000) scale(0.100000,-0.100000)"
fill="#000000" stroke="none">
<path d="M2457 4615 c-1 -1 -38 -5 -82 -8 -308 -23 -643 -138 -917 -314 -246
-156 -472 -382 -630 -628 -338 -522 -416 -1192 -209 -1788 106 -305 262 -550
500 -787 132 -130 230 -208 379 -298 213 -130 499 -238 712 -267 25 -3 52 -8
60 -10 69 -18 365 -25 493 -12 547 57 1029 310 1380 727 86 102 189 255 247
365 83 159 164 385 195 550 5 22 9 47 11 55 40 209 38 510 -7 740 -80 415
-263 762 -559 1061 -204 206 -424 356 -666 454 -49 20 -98 40 -109 44 -90 39
-308 87 -476 106 -52 6 -316 14 -322 10z m1349 -1009 c34 -23 51 -42 65 -76 8
-17 11 -324 12 -996 0 -949 0 -973 -20 -1010 -12 -23 -35 -46 -59 -59 -39 -20
-48 -20 -1166 -20 l-1126 0 -38 31 c-20 16 -43 46 -50 65 -9 27 -11 264 -10
1010 l1 974 24 34 c50 70 -27 66 1217 66 1086 0 1121 -1 1150 -19z"/>
<path d="M3048 3532 c-21 -11 -37 -30 -47 -55 -13 -34 -12 -42 3 -73 18 -39
65 -65 106 -57 14 2 38 16 53 31 25 24 28 32 24 74 -4 50 -19 71 -57 84 -41
13 -47 13 -82 -4z"/>
<path d="M3340 3543 c-65 -24 -90 -79 -65 -139 33 -79 155 -75 183 6 17 48
-10 114 -51 125 -41 12 -52 13 -67 8z"/>
<path d="M3594 3533 c-50 -25 -70 -77 -49 -126 21 -51 79 -74 130 -53 54 23
76 89 46 143 -22 43 -83 60 -127 36z"/>
<path d="M1577 3251 c-2 -3 -3 -375 -3 -826 l1 -820 1073 0 1072 0 -2 825 -3
825 -1068 1 c-587 1 -1069 -2 -1070 -5z m1200 -383 c6 -5 9 -21 7 -36 -4 -24
-59 -261 -69 -302 -7 -26 -36 -144 -40 -160 -32 -140 -66 -264 -76 -276 -15
-19 -63 -18 -80 2 -16 20 -17 18 80 419 81 334 88 354 114 364 22 9 43 5 64
-11z m-337 -171 l0 -74 -177 -68 c-98 -37 -182 -70 -187 -73 -11 -6 8 -14 294
-125 l65 -26 3 -75 3 -75 -183 80 c-101 44 -220 96 -265 115 l-81 36 -4 55
c-1 31 2 62 7 69 7 9 505 232 523 234 1 0 2 -33 2 -73z m680 -42 c85 -37 181
-78 212 -92 l57 -25 0 -59 c0 -32 -6 -62 -12 -67 -17 -13 -498 -222 -512 -222
-14 0 -14 126 0 138 8 7 213 89 329 132 17 6 25 14 20 19 -5 5 -81 37 -169 70
-88 34 -167 65 -175 70 -11 6 -15 26 -16 72 0 35 1 67 3 71 2 4 27 -4 56 -17
28 -13 122 -53 207 -90z"/>
</g>
</svg>
